# xmcd
#
# Track frame offsets: 
#        150
#        26550
#        57262
#        81326
#        105277
#        127321
#        161975
#        189730
#        219445
#        248970
#        285728
#        321698
#
# Disc length: 4745 seconds
#
# Revision: 5
# Processed by: cddbd v1.5.2PL0 Copyright (c) Steve Scherf et al.
# Submitted via: ExactAudioCopy v1.3
#
DISCID=ba12870c
DTITLE=Swing Out Sister - Live
DYEAR=2005
DGENRE=Pop
TTITLE0=Surrender - World Out Of Control
TTITLE1=Get In Touch With Yourself
TTITLE2=La La Means I Love You
TTITLE3=Sugarfree
TTITLE4=Stoned Soul Picnic
TTITLE5=Closer Than The Sun - Forever Blue
TTITLE6=Heaven Only Knows
TTITLE7=Filth and Dreams
TTITLE8=Now You're Not Here - No Scrubs
TTITLE9=Am I The Same Girl?
TTITLE10=Breakout - When Morning Comes
TTITLE11=Twilight World
EXTD=
EXTT0=
EXTT1=
EXTT2=
EXTT3=
EXTT4=
EXTT5=
EXTT6=
EXTT7=
EXTT8=
EXTT9=
EXTT10=
EXTT11=
PLAYORDER=
